<svg
   width="32"
   height="32"
   viewBox="0 0 32 32"
   version="1.1"
   id="svg1"
   xml:space="preserve"
   xmlns="http://www.w3.org/2000/svg"
   xmlns:svg="http://www.w3.org/2000/svg"><defs
     id="defs1" /><g
     id="layer1"
     transform="matrix(3.9666941,0,0,3.9667125,-380.88304,-611.74036)"><path
       id="path1-2"
       style="stroke-width:0;stroke-dasharray:none;paint-order:markers fill stroke;fill:#ffffff;fill-opacity:1"
       d="m 101.26394,161.4789 h 1.21008 c 0.44554,-1e-5 0.80671,-0.36119 0.8067,-0.80673 v -1.21006 c 0.002,-0.5354 0.80431,-0.5354 0.80671,0 v 1.21006 c 1e-5,0.89107 -0.72234,1.61343 -1.61341,1.61344 h -4.840291 c -0.891076,0 -1.613434,-0.72236 -1.613426,-1.61344 v -1.21006 c 6.1e-4,-0.5372 0.806103,-0.5372 0.806713,0 v 1.21006 c -9e-6,0.44554 0.361171,0.80673 0.806713,0.80673 h 1.21007 c 0.535405,0.002 0.535405,0.80431 0,0.80671 h 2.420141 c -0.5354,-0.002 -0.5354,-0.80431 0,-0.80671 z m -4.436924,-4.43693 c 6.11e-4,0.53842 -0.806168,0.93942 -0.805557,0.401 l -0.0012,-1.61108 c 9e-6,-0.89106 0.722362,-1.61341 1.613426,-1.61341 h 1.21007 c 0.540219,-0.002 0.540219,0.80913 0,0.80671 h -1.21007 c -0.44553,0 -0.806706,0.36117 -0.806713,0.8067 z m 6.453704,0 v -1.21008 c -1e-5,-0.44553 -0.36117,-0.80669 -0.8067,-0.8067 h -1.21008 c -0.5354,-0.002 -0.5354,-0.80431 0,-0.80671 h 1.21008 c 0.89106,1e-5 1.6134,0.72235 1.61341,1.61341 l -1.5e-4,1.55946 c -0.002,0.5354 -0.80416,0.18602 -0.80656,-0.34938 z m -5.574486,2.21028 c -0.105833,-0.10583 -0.15581,-0.23225 -0.149931,-0.37924 0.0059,-0.14699 0.06466,-0.26164 0.176389,-0.34395 0.323379,-0.24695 0.683565,-0.43945 1.080558,-0.5775 0.396993,-0.13805 0.815856,-0.2072 1.25659,-0.20743 0.44685,0 0.86878,0.0705 1.26577,0.21166 0.39699,0.14111 0.75706,0.33808 1.08021,0.59091 0.11171,0.0823 0.1691,0.19555 0.17215,0.33972 0.003,0.14417 -0.0482,0.26905 -0.15451,0.37465 -0.0999,0.1 -0.22202,0.15146 -0.36619,0.15452 -0.14417,0.003 -0.27787,-0.0364 -0.40111,-0.11924 -0.2293,-0.15875 -0.47765,-0.28082 -0.74506,-0.36619 -0.26741,-0.0854 -0.55116,-0.12793 -0.85126,-0.1277 -0.299858,0 -0.583607,0.0441 -0.851248,0.13229 -0.267641,0.0882 -0.513056,0.20873 -0.736247,0.3616 -0.129352,0.0882 -0.266112,0.12794 -0.410281,0.11924 -0.144169,-0.009 -0.266112,-0.0632 -0.36583,-0.16334 z m -1.534845,-1.4431 c -0.09995,-0.1 -0.14993,-0.22202 -0.14993,-0.36618 0,-0.14417 0.05292,-0.26317 0.15875,-0.35701 0.523287,-0.44098 1.146788,-0.83385 1.799427,-1.08385 0.652639,-0.25 1.349374,-0.37488 2.090204,-0.37465 0.32088,0 0.63349,0.0234 0.93783,0.0703 0.3983,0.0614 0.78242,0.16293 1.15238,0.30465 0.65264,0.25 1.2406,0.59537 1.76389,1.03611 0.10583,0.0941 0.16028,0.21167 0.16334,0.35278 0.003,0.14111 -0.0482,0.26458 -0.15452,0.37041 -0.1,0.1 -0.2219,0.15288 -0.36583,0.15875 -0.14393,0.006 -0.27481,-0.0381 -0.39264,-0.13229 -0.42921,-0.34689 -0.90699,-0.61736 -1.43334,-0.81139 -0.52634,-0.19403 -1.08338,-0.29104 -1.67111,-0.29104 -0.58796,0 -1.144995,0.097 -1.671104,0.29104 -0.526109,0.19403 -1.039426,0.51188 -1.468875,0.85878 -0.117592,0.0941 -0.248473,0.13817 -0.392641,0.13229 -0.144168,-0.006 -0.266112,-0.0589 -0.365831,-0.15875 z m 3.898451,3.46275 c -0.199904,0 -0.367472,-0.0676 -0.502704,-0.20284 -0.135231,-0.13523 -0.202847,-0.3028 -0.202847,-0.50271 0,-0.19991 0.06762,-0.36748 0.202847,-0.50271 0.135232,-0.13523 0.3028,-0.20285 0.502704,-0.20285 0.19991,0 0.36748,0.0676 0.50271,0.20285 0.13523,0.13523 0.20285,0.3028 0.20285,0.50271 0,0.19991 -0.0676,0.36748 -0.20285,0.50271 -0.13523,0.13523 -0.3028,0.20284 -0.50271,0.20284 z" /></g></svg>
