<?xml version="1.0" encoding="UTF-8" standalone="no"?>
<svg
   width="32"
   height="32"
   viewBox="0 0 32 32"
   version="1.1"
   id="svg1"
   xml:space="preserve"
   xmlns="http://www.w3.org/2000/svg"
   xmlns:svg="http://www.w3.org/2000/svg"><defs
     id="defs1" /><g
     id="layer1"
     transform="matrix(3.9666941,0,0,3.9667125,-380.88304,-611.74036)"
     style="stroke:#000000;stroke-opacity:1"><path
       id="path1-2"
       style="fill:#ffffff;fill-opacity:1;stroke:none;stroke-width:0.0252098;stroke-dasharray:none;stroke-opacity:1;paint-order:markers fill stroke"
       d="m 97.633803,154.21848 c -0.891063,0 -1.613524,0.72246 -1.613533,1.61352 l 9.85e-4,1.61107 c 0,0.14402 0.05041,0.26588 0.150176,0.36583 0.09972,0.0999 0.221672,0.15304 0.365839,0.15904 0.144168,0.006 0.274836,-0.0384 0.392428,-0.13245 0.429449,-0.3469 0.943157,-0.66468 1.469265,-0.85871 0.526109,-0.19404 1.08269,-0.29099 1.670647,-0.29099 0.58773,0 1.1448,0.097 1.67114,0.29099 0.52635,0.19403 1.00412,0.46455 1.43332,0.81144 0.11783,0.0942 0.24899,0.13845 0.39292,0.13245 0.14393,-0.006 0.26584,-0.059 0.36584,-0.15904 0.10632,-0.10583 0.15761,-0.22915 0.15461,-0.37026 V 155.832 c -1e-5,-0.89106 -0.72247,-1.61351 -1.61353,-1.61352 h -1.20978 c -0.5354,0.002 -0.5354,0.80451 0,0.80651 h 1.20978 c 0.44553,1e-5 0.807,0.36148 0.80701,0.80701 v 0.73414 c -0.34969,-0.2232 -0.72292,-0.41142 -1.12066,-0.56377 -0.36996,-0.14172 -0.75436,-0.24339 -1.15266,-0.30479 -0.30434,-0.0469 -0.61711,-0.0699 -0.93799,-0.0699 -0.740827,-2.3e-4 -1.437517,0.12421 -2.090155,0.37421 -0.400895,0.15357 -0.790233,0.36178 -1.152664,0.6012 V 155.832 c 7e-6,-0.44553 0.361483,-0.80701 0.807012,-0.80701 h 1.20978 c 0.540219,0.002 0.540219,-0.80851 0,-0.80651 z m 2.435807,3.52543 c -0.440731,2.3e-4 -0.859562,0.0697 -1.256554,0.20778 -0.396993,0.13805 -0.756906,0.33061 -1.080284,0.57756 -0.111729,0.0823 -0.170373,0.19669 -0.176273,0.34368 -0.0059,0.14699 0.04385,0.27331 0.149684,0.37913 0.09972,0.10014 0.22167,0.15447 0.365839,0.16347 0.144169,0.009 0.280802,-0.0309 0.410154,-0.11915 0.22319,-0.15287 0.468961,-0.27321 0.736602,-0.36141 0.26764,-0.0882 0.550976,-0.13245 0.850832,-0.13245 0.3001,-2.3e-4 0.58392,0.0421 0.85133,0.12753 0.26741,0.0854 0.51616,0.20758 0.74546,0.36633 0.12324,0.0828 0.25663,0.12215 0.4008,0.11915 0.14417,-0.003 0.26643,-0.0546 0.36633,-0.1546 0.10631,-0.1056 0.15761,-0.23053 0.15461,-0.3747 -0.003,-0.14417 -0.0606,-0.25744 -0.17233,-0.33974 -0.32315,-0.25283 -0.6833,-0.44975 -1.08029,-0.59086 -0.39699,-0.14116 -0.81906,-0.21172 -1.26591,-0.21172 z m -3.64608,1.31514 c -0.201525,0 -0.402955,0.13466 -0.40326,0.40326 v 1.20978 c -8e-6,0.89107 0.722458,1.61352 1.613533,1.61352 h 1.20978 c 0.535405,-0.002 0.535405,-0.80452 0,-0.80652 h -1.20978 c -0.445541,0 -0.807021,-0.36147 -0.807012,-0.807 v -1.20978 c -3.05e-4,-0.2686 -0.201735,-0.40326 -0.403261,-0.40326 z m 7.26016,0.001 c -0.20113,0 -0.40177,0.13408 -0.40277,0.40178 v 1.20978 c 1e-5,0.44553 -0.36147,0.80699 -0.80701,0.807 h -1.20978 c -0.5354,0.002 -0.5354,0.80452 0,0.80652 h 1.20978 c 0.89107,-1e-5 1.61354,-0.72246 1.61353,-1.61352 v -1.20978 c -0.001,-0.2677 -0.20262,-0.40178 -0.40375,-0.40178 z m -3.61408,0.80012 c -0.199902,0 -0.367487,0.0676 -0.502719,0.20286 -0.135227,0.13523 -0.202369,0.3028 -0.202369,0.50271 0,0.19991 0.06714,0.36749 0.202369,0.50272 0.135232,0.13524 0.302817,0.20286 0.502719,0.20286 0.19991,0 0.36749,-0.0676 0.50272,-0.20286 0.13525,-0.13523 0.20286,-0.30281 0.20286,-0.50272 0,-0.19991 -0.0676,-0.36748 -0.20286,-0.50271 -0.13523,-0.13525 -0.30281,-0.20286 -0.50272,-0.20286 z" /></g></svg>
